%TF.GenerationSoftware,KiCad,Pcbnew,6.0.11+dfsg-1~bpo11+1*%
%TF.CreationDate,2023-06-10T16:53:40+02:00*%
%TF.ProjectId,myschematic,6d797363-6865-46d6-9174-69632e6b6963,rev?*%
%TF.SameCoordinates,Original*%
%TF.FileFunction,Drillmap*%
%TF.FilePolarity,Positive*%
%FSLAX45Y45*%
G04 Gerber Fmt 4.5, Leading zero omitted, Abs format (unit mm)*
G04 Created by KiCad (PCBNEW 6.0.11+dfsg-1~bpo11+1) date 2023-06-10 16:53:40*
%MOMM*%
%LPD*%
G01*
G04 APERTURE LIST*
%ADD10C,0.100000*%
%ADD11C,0.200000*%
G04 APERTURE END LIST*
D10*
X4500000Y-6200000D02*
X1700000Y-6200000D01*
X1700000Y-6200000D02*
X1700000Y-3300000D01*
X1700000Y-3300000D02*
X4500000Y-3300000D01*
X4500000Y-3300000D02*
X4500000Y-6200000D01*
D11*
X1952619Y-6515476D02*
X1952619Y-6315476D01*
X2000238Y-6315476D01*
X2028809Y-6325000D01*
X2047857Y-6344048D01*
X2057381Y-6363095D01*
X2066905Y-6401190D01*
X2066905Y-6429762D01*
X2057381Y-6467857D01*
X2047857Y-6486905D01*
X2028809Y-6505952D01*
X2000238Y-6515476D01*
X1952619Y-6515476D01*
X2152619Y-6515476D02*
X2152619Y-6382143D01*
X2152619Y-6420238D02*
X2162143Y-6401190D01*
X2171667Y-6391667D01*
X2190714Y-6382143D01*
X2209762Y-6382143D01*
X2276429Y-6515476D02*
X2276429Y-6382143D01*
X2276429Y-6315476D02*
X2266905Y-6325000D01*
X2276429Y-6334524D01*
X2285952Y-6325000D01*
X2276429Y-6315476D01*
X2276429Y-6334524D01*
X2400238Y-6515476D02*
X2381190Y-6505952D01*
X2371667Y-6486905D01*
X2371667Y-6315476D01*
X2505000Y-6515476D02*
X2485952Y-6505952D01*
X2476429Y-6486905D01*
X2476429Y-6315476D01*
X2733571Y-6515476D02*
X2733571Y-6315476D01*
X2800238Y-6458333D01*
X2866905Y-6315476D01*
X2866905Y-6515476D01*
X3047857Y-6515476D02*
X3047857Y-6410714D01*
X3038333Y-6391667D01*
X3019286Y-6382143D01*
X2981190Y-6382143D01*
X2962143Y-6391667D01*
X3047857Y-6505952D02*
X3028809Y-6515476D01*
X2981190Y-6515476D01*
X2962143Y-6505952D01*
X2952619Y-6486905D01*
X2952619Y-6467857D01*
X2962143Y-6448809D01*
X2981190Y-6439286D01*
X3028809Y-6439286D01*
X3047857Y-6429762D01*
X3143095Y-6382143D02*
X3143095Y-6582143D01*
X3143095Y-6391667D02*
X3162143Y-6382143D01*
X3200238Y-6382143D01*
X3219286Y-6391667D01*
X3228809Y-6401190D01*
X3238333Y-6420238D01*
X3238333Y-6477381D01*
X3228809Y-6496428D01*
X3219286Y-6505952D01*
X3200238Y-6515476D01*
X3162143Y-6515476D01*
X3143095Y-6505952D01*
X3324048Y-6496428D02*
X3333571Y-6505952D01*
X3324048Y-6515476D01*
X3314524Y-6505952D01*
X3324048Y-6496428D01*
X3324048Y-6515476D01*
X3324048Y-6391667D02*
X3333571Y-6401190D01*
X3324048Y-6410714D01*
X3314524Y-6401190D01*
X3324048Y-6391667D01*
X3324048Y-6410714D01*
M02*
